<svg viewBox="0 0 100 100" xmlns="http://www.w3.org/2000/svg"><polygon points="96 50 73 89.83716857408417 27.00000000000001 89.83716857408419 4 50.00000000000001 26.99999999999998 10.162831425915833 73 10.162831425915826" stroke="#fff" fill="#444" style="--index: 0;"></polygon><polygon points="92 50 71 86.37306695894642 29.00000000000001 86.37306695894642 8 50.00000000000001 28.999999999999982 13.62693304105359 71 13.626933041053576" stroke="#fff" fill="#444" style="--index: 1;"></polygon><polygon points="88 50 69 82.90896534380866 31.000000000000007 82.90896534380867 12 50.00000000000001 30.999999999999982 17.09103465619134 69 17.091034656191333" stroke="#fff" fill="#444" style="--index: 2;"></polygon><polygon points="84 50 67 79.44486372867091 33.00000000000001 79.44486372867092 16 50.00000000000001 32.999999999999986 20.555136271329097 67 20.555136271329086" stroke="#fff" fill="#444" style="--index: 3;"></polygon><polygon points="80 50 65 75.98076211353316 35.00000000000001 75.98076211353316 20 50.00000000000001 34.999999999999986 24.019237886466847 65 24.019237886466843" stroke="#fff" fill="#444" style="--index: 4;"></polygon><polygon points="76 50 63 72.5166604983954 37.00000000000001 72.51666049839541 24 50 36.999999999999986 27.483339501604604 63 27.483339501604597" stroke="#fff" fill="#444" style="--index: 5;"></polygon><polygon points="72 50 61 69.05255888325765 39.00000000000001 69.05255888325766 28 50 38.999999999999986 30.947441116742354 61 30.94744111674235" stroke="#fff" fill="#444" style="--index: 6;"></polygon><polygon points="68 50 59 65.5884572681199 41 65.5884572681199 32 50 40.99999999999999 34.41154273188011 59 34.411542731880104" stroke="#fff" fill="#444" style="--index: 7;"></polygon><polygon points="64 50 57 62.12435565298214 43 62.124355652982146 36 50 42.99999999999999 37.87564434701786 57 37.87564434701786" stroke="#fff" fill="#444" style="--index: 8;"></polygon><polygon points="60 50 55 58.66025403784438 45 58.66025403784439 40 50 44.99999999999999 41.33974596215562 55 41.33974596215562" stroke="#fff" fill="#444" style="--index: 9;"></polygon><polygon points="56 50 53 55.19615242270663 47 55.19615242270663 44 50 47 44.80384757729337 53 44.80384757729337" stroke="#fff" fill="#fff" style="--index: 10;"></polygon></svg>
